<svg width="1280" height="720" xmlns="http://www.w3.org/2000/svg" xmlns:xlink="http://www.w3.org/1999/xlink" overflow="hidden"><defs><clipPath id="clip0"><rect x="0" y="0" width="1280" height="720"/></clipPath></defs><g clip-path="url(#clip0)"><rect x="0" y="0" width="1280" height="720" fill="#FFFFFF"/><rect x="320.5" y="262.5" width="95" height="85" stroke="#000000" stroke-width="1.33333" stroke-miterlimit="8" fill="#FFFFFF"/><rect x="415.5" y="262.5" width="94" height="85" stroke="#000000" stroke-width="1.33333" stroke-miterlimit="8" fill="#B4C7E7"/><rect x="509.5" y="262.5" width="95" height="85" stroke="#000000" stroke-width="1.33333" stroke-miterlimit="8" fill="#B4C7E7"/><rect x="604.5" y="262.5" width="94" height="85" stroke="#000000" stroke-width="1.33333" stroke-miterlimit="8" fill="#FFFFFF"/><rect x="320.5" y="347.5" width="95" height="85" stroke="#000000" stroke-width="1.33333" stroke-miterlimit="8" fill="#FFFFFF"/><rect x="415.5" y="347.5" width="94" height="85" stroke="#000000" stroke-width="1.33333" stroke-miterlimit="8" fill="#FFFFFF"/><rect x="509.5" y="347.5" width="95" height="85" stroke="#000000" stroke-width="1.33333" stroke-miterlimit="8" fill="#FFFFFF"/><rect x="604.5" y="347.5" width="94" height="85" stroke="#000000" stroke-width="1.33333" stroke-miterlimit="8" fill="#FFFFFF"/><text font-family="Calibri,Calibri_MSFontService,sans-serif" font-weight="400" font-size="32" transform="translate(465.499 316)">Dataset<tspan font-size="24" x="2.52075" y="-136">Level 1</tspan><tspan font-size="14" x="-211.937" y="112">Lon = </tspan><tspan font-size="14" x="-178.104" y="112">-</tspan><tspan font-size="14" x="-173.771" y="112">180</tspan><tspan font-size="14" x="-211.937" y="129">Lat</tspan><tspan font-size="14" x="-191.604" y="129">=</tspan><tspan font-size="14" x="-181.437" y="129">-</tspan><tspan font-size="14" x="-177.104" y="129">9</tspan><tspan font-size="14" x="-169.937" y="129">0</tspan><tspan font-size="24" x="-126.163" y="-86">Col</tspan><tspan font-size="24" x="-89.6631" y="-86">0</tspan><tspan font-size="24" x="-27.9115" y="-87">Co</tspan><tspan font-size="24" x="-2.4115" y="-87">l</tspan><tspan font-size="24" x="8.5885" y="-87">1</tspan><tspan font-size="24" x="65.8211" y="-87">Col 2</tspan><tspan font-size="24" x="-225.826" y="78">Row </tspan><tspan font-size="24" x="-178.08" y="78">0</tspan><tspan font-size="24" x="-225.826" y="-4">Row</tspan><tspan font-size="24" x="-178.08" y="-4">1</tspan><tspan font-size="24" x="160.083" y="-87">Col 3</tspan><tspan font-size="14" x="236.868" y="-58">Lon = 180</tspan><tspan font-size="14" x="236.868" y="-41">Lat</tspan><tspan font-size="14" x="257.201" y="-41">=</tspan><tspan font-size="14" x="267.368" y="-41">9</tspan><tspan font-size="14" x="274.535" y="-41">0</tspan><tspan font-size="14" x="-80.5512" y="28">Lon = </tspan><tspan font-size="14" x="-46.7178" y="28">-</tspan><tspan font-size="14" x="-42.3845" y="28">90</tspan><tspan font-size="14" x="-80.5512" y="45">Lat</tspan><tspan font-size="14" x="-60.2178" y="45">=</tspan><tspan font-size="14" x="-50.0512" y="45">0</tspan><tspan font-size="14" x="109.964" y="-58">Lon = 90</tspan><tspan font-size="14" x="109.964" y="-41">Lat</tspan><tspan font-size="14" x="130.297" y="-41">=</tspan><tspan font-size="14" x="140.464" y="-41">9</tspan><tspan font-size="14" x="147.63" y="-41">0</tspan></text></g></svg>